<svg width="875" height="555" viewBox="0 0 875 555" fill="none" xmlns="http://www.w3.org/2000/svg">
    <rect width="875" height="555" fill="#0B0052"/>
    <path id="MT.2" d="M0 180.082L101 99.7465L261 172.271L405 54L569 190.124L713 109.788L799 180.082L875 158.882V613H0V180.082Z" fill="#030082"/>
    <path id="MT.1" d="M0 276.114L101 213.599L261 270.036L405 178L569 283.928L713 221.413L799 276.114L875 259.617V613H0V276.114Z" fill="#161471"/>
    <g id="Lake">
        <rect y="445" width="875" height="110" fill="#A0C6FF"/>
        <rect x="48" y="457" width="193" height="9" rx="4.5" fill="#85A7FF"/>
        <rect x="437" y="453" width="102" height="9" rx="4.5" fill="#85A7FF"/>
        <rect x="418" y="491" width="193" height="9" rx="4.5" fill="#85A7FF"/>
        <rect x="611" y="469" width="193" height="9" rx="4.5" fill="#85A7FF"/>
        <rect x="280" y="473" width="110" height="9" rx="4.5" fill="#85A7FF"/>
    </g>
    <path id="Ground" d="M0 613H875V495C875 495 784.312 519 723 519C554.489 519 454 525 286.5 495C119 465 0 495 0 495V613Z" fill="#0B0052"/>
    <g class="pop-up" style="--order: 3" id="Trees">
        <path d="M286 407H316L323 532H278.5L286 407Z" fill="#0B0052"/>
        <path d="M297.835 431.678C299.464 430.653 301.536 430.653 303.165 431.678L366.818 471.769C371.061 474.442 369.167 481 364.153 481H236.847C231.833 481 229.939 474.442 234.182 471.769L297.835 431.678Z" fill="#110E9F"/>
        <path d="M298.464 404.492C300.029 403.571 301.971 403.571 303.536 404.492L352.73 433.441C357.12 436.024 355.288 442.75 350.194 442.75H251.806C246.712 442.75 244.88 436.024 249.27 433.441L298.464 404.492Z" fill="#110DB4"/>
        <path d="M297.7 376.893C299.392 375.749 301.608 375.749 303.3 376.893L340.235 401.858C344.32 404.619 342.365 411 337.435 411H263.565C258.635 411 256.68 404.619 260.765 401.858L297.7 376.893Z" fill="#2925CC"/>
        <path d="M297.851 352.553C299.687 351.065 302.313 351.065 304.149 352.553L330.746 374.116C334.404 377.082 332.307 383 327.597 383H274.403C269.693 383 267.596 377.082 271.254 374.116L297.851 352.553Z" fill="#120DD8"/>
        <path d="M296.693 332.47C298.69 330.126 302.31 330.126 304.307 332.47L319.029 349.758C321.794 353.005 319.487 358 315.222 358H285.778C281.513 358 279.206 353.005 281.971 349.758L296.693 332.47Z" fill="#2D29EE"/>
        <path d="M704 394H734L741 519H696.5L704 394Z" fill="#0B0052"/>
        <path d="M715.835 418.678C717.464 417.653 719.536 417.653 721.165 418.678L784.818 458.769C789.061 461.442 787.167 468 782.153 468H654.847C649.833 468 647.939 461.442 652.182 458.769L715.835 418.678Z" fill="#110E9F"/>
        <path d="M716.464 391.492C718.029 390.571 719.971 390.571 721.536 391.492L770.73 420.441C775.12 423.024 773.288 429.75 768.194 429.75H669.806C664.712 429.75 662.88 423.024 667.27 420.441L716.464 391.492Z" fill="#110DB4"/>
        <path d="M715.7 363.893C717.392 362.749 719.608 362.749 721.3 363.893L758.235 388.858C762.32 391.619 760.365 398 755.435 398H681.565C676.635 398 674.68 391.619 678.765 388.858L715.7 363.893Z" fill="#2925CC"/>
        <path d="M715.851 339.553C717.687 338.065 720.313 338.065 722.149 339.553L748.746 361.116C752.404 364.082 750.307 370 745.597 370H692.403C687.693 370 685.596 364.082 689.254 361.116L715.851 339.553Z" fill="#120DD8"/>
        <path d="M714.693 319.47C716.69 317.126 720.31 317.126 722.307 319.47L737.029 336.758C739.794 340.005 737.487 345 733.222 345H703.778C699.513 345 697.206 340.005 699.971 336.758L714.693 319.47Z" fill="#2D29EE"/>
        <path id="Rectangle 11_3" d="M571 411H601L608 536H563.5L571 411Z" fill="#0B0052"/>
        <path d="M582.835 435.678C584.464 434.653 586.536 434.653 588.165 435.678L651.818 475.769C656.061 478.442 654.167 485 649.153 485H521.847C516.833 485 514.939 478.442 519.182 475.769L582.835 435.678Z" fill="#110E9F"/>
        <path d="M583.464 408.492C585.029 407.571 586.971 407.571 588.536 408.492L637.73 437.441C642.12 440.024 640.288 446.75 635.194 446.75H536.806C531.712 446.75 529.88 440.024 534.27 437.441L583.464 408.492Z" fill="#110DB4"/>
        <path d="M582.7 380.893C584.392 379.749 586.608 379.749 588.3 380.893L625.235 405.858C629.32 408.619 627.365 415 622.435 415H548.565C543.635 415 541.68 408.619 545.765 405.858L582.7 380.893Z" fill="#2925CC"/>
        <path d="M582.851 356.553C584.687 355.065 587.313 355.065 589.149 356.553L615.746 378.116C619.404 381.082 617.307 387 612.597 387H559.403C554.693 387 552.596 381.082 556.254 378.116L582.851 356.553Z" fill="#120DD8"/>
        <path d="M581.693 336.47C583.69 334.126 587.31 334.126 589.307 336.47L604.029 353.758C606.794 357.005 604.487 362 600.222 362H570.778C566.513 362 564.206 357.005 566.971 353.758L581.693 336.47Z" fill="#2D29EE"/>
        <path d="M145 385H175L182 510H137.5L145 385Z" fill="#0B0052"/>
        <path id="Polygon 5_4" d="M156.835 409.678C158.464 408.653 160.536 408.653 162.165 409.678L225.818 449.769C230.061 452.442 228.167 459 223.153 459H95.8471C90.8328 459 88.9395 452.442 93.1824 449.769L156.835 409.678Z" fill="#110E9F"/>
        <path id="Polygon 4_4" d="M157.464 382.492C159.029 381.571 160.971 381.571 162.536 382.492L211.73 411.441C216.12 414.024 214.288 420.75 209.194 420.75H110.806C105.712 420.75 103.88 414.024 108.27 411.441L157.464 382.492Z" fill="#110DB4"/>
        <path id="Polygon 3_4" d="M156.7 354.893C158.392 353.749 160.608 353.749 162.3 354.893L199.235 379.858C203.32 382.619 201.365 389 196.435 389H122.565C117.635 389 115.68 382.619 119.765 379.858L156.7 354.893Z" fill="#2925CC"/>
        <path id="Polygon 2_4" d="M156.851 330.553C158.687 329.065 161.313 329.065 163.149 330.553L189.746 352.116C193.404 355.082 191.307 361 186.597 361H133.403C128.693 361 126.596 355.082 130.254 352.116L156.851 330.553Z" fill="#120DD8"/>
        <path id="Polygon 1_4" d="M155.693 310.47C157.69 308.126 161.31 308.126 163.307 310.47L178.029 327.758C180.794 331.005 178.487 336 174.222 336H144.778C140.513 336 138.206 331.005 140.971 327.758L155.693 310.47Z" fill="#2D29EE"/>
    </g>
</svg>
