<svg width="1221" height="887" viewBox="0 0 1221 887" fill="none" xmlns="http://www.w3.org/2000/svg">
<rect width="1221" height="886.912" fill="#0C014F"/>
<path d="M0 338.43L140.938 236.634L364.207 328.533L565.149 178.667L793.999 351.155L994.941 249.358L1114.95 338.43L1221 311.567V886.998H0V338.43Z" fill="#030082"/>
<path d="M0 460.116L140.938 380.901L364.207 452.414L565.149 335.792L793.999 470.018L994.941 390.803L1114.95 460.116L1221 439.212V886.998H0V460.116Z" fill="#161471"/>
<rect y="674.12" width="1221" height="139.386" fill="#A0C6FF"/>
<rect x="66.9805" y="689.326" width="269.318" height="11.4043" rx="5.70214" fill="#8AABFF"/>
<rect x="609.802" y="684.257" width="142.334" height="11.4043" rx="5.70214" fill="#8AABFF"/>
<rect x="583.289" y="732.408" width="269.318" height="11.4043" rx="5.70214" fill="#8AABFF"/>
<rect x="852.607" y="704.531" width="269.318" height="11.4043" rx="5.70214" fill="#8AABFF"/>
<rect x="390.721" y="709.6" width="153.497" height="11.4043" rx="5.70214" fill="#8AABFF"/>
<path d="M0 887H1221V737.477C1221 737.477 1094.45 767.889 1008.89 767.889C773.749 767.889 633.525 775.492 399.79 737.477C166.056 699.463 0 737.477 0 737.477V887Z" fill="#0C014F"/>
<path d="M587.756 467.604H669.481L688.551 776.822H567.324L587.756 467.604Z" fill="#0C014F"/>
<path d="M624.773 525.919C626.311 525.039 628.2 525.039 629.738 525.919L831.511 641.32C835.961 643.865 834.155 650.66 829.029 650.66H425.482C420.356 650.66 418.55 643.865 422.999 641.32L624.773 525.919Z" fill="#1B18A6"/>
<path d="M626.261 458.967C627.733 458.18 629.501 458.18 630.974 458.967L795.027 546.629C799.616 549.081 797.873 556.039 792.67 556.039H464.565C459.361 556.039 457.619 549.081 462.208 546.629L626.261 458.967Z" fill="#1F1CB9"/>
<path d="M624.641 390.048C626.245 389.063 628.267 389.063 629.872 390.048L757.259 468.236C761.558 470.875 759.688 477.498 754.644 477.498H499.869C494.824 477.498 492.954 470.875 497.253 468.236L624.641 390.048Z" fill="#2925CC"/>
<path d="M625.653 328.782C627.416 327.483 629.819 327.483 631.582 328.782L727.24 399.206C731.128 402.068 729.103 408.233 724.276 408.233H532.959C528.132 408.233 526.107 402.068 529.995 399.206L625.653 328.782Z" fill="#140FE6"/>
<path d="M623.609 276.066C625.584 273.96 628.928 273.96 630.903 276.066L688.957 337.969C691.951 341.162 689.687 346.39 685.309 346.39H569.203C564.825 346.39 562.561 341.162 565.556 337.969L623.609 276.066Z" fill="#2D29EE"/>
<path d="M225.437 509.655H307.163L326.232 818.873H205.005L225.437 509.655Z" fill="#0C014F"/>
<path d="M262.454 567.971C263.992 567.092 265.881 567.092 267.419 567.971L469.192 683.373C473.642 685.918 471.836 692.713 466.71 692.713H63.163C58.0367 692.713 56.2307 685.918 60.6806 683.373L262.454 567.971Z" fill="#1B18A6"/>
<path d="M263.942 501.02C265.415 500.233 267.183 500.233 268.655 501.02L432.708 588.682C437.297 591.134 435.555 598.092 430.352 598.092H102.246C97.0431 598.092 95.3007 591.134 99.8897 588.682L263.942 501.02Z" fill="#1F1CB9"/>
<path d="M262.322 432.101C263.926 431.116 265.948 431.116 267.553 432.101L394.94 510.289C399.24 512.928 397.369 519.55 392.325 519.55H137.55C132.505 519.55 130.635 512.928 134.934 510.289L262.322 432.101Z" fill="#2925CC"/>
<path d="M263.334 370.834C265.097 369.536 267.5 369.536 269.263 370.834L364.921 441.259C368.809 444.121 366.785 450.285 361.957 450.285H170.64C165.813 450.285 163.788 444.121 167.676 441.259L263.334 370.834Z" fill="#140FE6"/>
<path d="M261.29 318.118C263.266 316.012 266.609 316.012 268.585 318.118L326.638 380.022C329.632 383.215 327.368 388.442 322.991 388.442H206.884C202.507 388.442 200.243 383.215 203.237 380.022L261.29 318.118Z" fill="#2D29EE"/>
<path d="M43.9551 19.0068L45.8447 25.596L53.0253 27.0785L45.8447 29.8789L43.9551 35.4797L41.6875 29.8789L34.8848 27.0785L41.6875 25.596L43.9551 19.0068Z" fill="white"/>
<path d="M91.4004 133.05L93.29 139.639L100.471 141.122L93.29 143.922L91.4004 149.523L89.1328 143.922L82.3301 141.122L89.1328 139.639L91.4004 133.05Z" fill="white"/>
<path d="M203.034 43.0825L204.924 49.6717L212.104 51.1542L204.924 53.9546L203.034 59.5554L200.767 53.9546L193.964 51.1542L200.767 49.6717L203.034 43.0825Z" fill="white"/>
<path d="M50.9316 178.667L52.8213 185.256L60.0019 186.738L52.8213 189.539L50.9316 195.139L48.664 189.539L41.8613 186.738L48.664 185.256L50.9316 178.667Z" fill="white"/>
<path d="M150.007 10.1372L151.896 16.7263L159.077 18.2089L151.896 21.0093L150.007 26.61L147.739 21.0093L140.937 18.2089L147.739 16.7263L150.007 10.1372Z" fill="white"/>
<path d="M116.518 95.0352L118.407 101.624L125.588 103.107L118.407 105.907L116.518 111.508L114.25 105.907L107.447 103.107L114.25 101.624L116.518 95.0352Z" fill="white"/>
<path d="M43.9551 78.5635L45.8447 85.1526L53.0253 86.6352L45.8447 89.4355L43.9551 95.0363L41.6875 89.4355L34.8848 86.6352L41.6875 85.1526L43.9551 78.5635Z" fill="white"/>
<path d="M98.3764 35.48L100.266 42.0691L107.447 43.5517L100.266 46.3521L98.3764 51.9528L96.1089 46.3521L89.3062 43.5517L96.1089 42.0691L98.3764 35.48Z" fill="white"/>
<path d="M954.534 15.9667L954.209 22.7692L960.593 26.1017L952.823 26.8632L949.205 31.7129L948.849 25.7543L943.253 21.263L950.235 21.6604L954.534 15.9667Z" fill="white"/>
<path d="M962.995 137.633L962.67 144.436L969.054 147.768L961.284 148.53L957.666 153.379L957.31 147.421L951.714 142.929L958.696 143.327L962.995 137.633Z" fill="white"/>
<path d="M1098.81 81.4125L1098.48 88.215L1104.87 91.5475L1097.1 92.309L1093.48 97.1587L1093.12 91.2001L1087.53 86.7088L1094.51 87.1062L1098.81 81.4125Z" fill="white"/>
<path d="M909.556 170.443L909.231 177.246L915.615 180.578L907.846 181.34L904.228 186.189L903.872 180.231L898.275 175.74L905.257 176.137L909.556 170.443Z" fill="white"/>
<path d="M1058.78 35.7768L1058.45 42.5793L1064.84 45.9118L1057.07 46.6733L1053.45 51.5229L1053.09 45.5644L1047.5 41.073L1054.48 41.4704L1058.78 35.7768Z" fill="white"/>
<path d="M999.301 107.996L998.975 114.799L1005.36 118.131L997.59 118.893L993.972 123.742L993.616 117.784L988.019 113.292L995.002 113.69L999.301 107.996Z" fill="white"/>
<path d="M935.269 72.895L934.944 79.6975L941.328 83.0299L933.558 83.7914L929.94 88.6411L929.584 82.6826L923.988 78.1912L930.97 78.5886L935.269 72.895Z" fill="white"/>
<path d="M1001.23 46.2285L1000.9 53.0309L1007.28 56.3634L999.515 57.1249L995.897 61.9746L995.541 56.0161L989.945 51.5247L996.927 51.9221L1001.23 46.2285Z" fill="white"/>
<path d="M1134.27 280.149L1133.69 273.36L1126.91 270.75L1134.52 269.144L1137.47 263.934L1138.61 269.811L1144.76 273.658L1137.78 274.026L1134.27 280.149Z" fill="white"/>
<path d="M1109.74 160.292L1109.16 153.504L1102.38 150.893L1109.99 149.288L1112.94 144.078L1114.08 149.954L1120.23 153.801L1113.25 154.17L1109.74 160.292Z" fill="white"/>
<path d="M982.364 230.95L981.785 224.162L975.005 221.551L982.618 219.946L985.566 214.736L986.71 220.612L992.861 224.459L985.877 224.828L982.364 230.95Z" fill="white"/>
<path d="M1158.43 121.878L1157.86 115.09L1151.08 112.479L1158.69 110.874L1161.64 105.664L1162.78 111.54L1168.93 115.387L1161.95 115.756L1158.43 121.878Z" fill="white"/>
<path d="M1028.15 271.88L1027.57 265.091L1020.79 262.481L1028.41 260.875L1031.36 255.665L1032.5 261.542L1038.65 265.389L1031.67 265.757L1028.15 271.88Z" fill="white"/>
<path d="M1077.62 193.683L1077.04 186.894L1070.26 184.284L1077.88 182.679L1080.82 177.469L1081.97 183.345L1088.12 187.192L1081.13 187.561L1077.62 193.683Z" fill="white"/>
<path d="M1145.84 221.528L1145.26 214.74L1138.48 212.13L1146.1 210.524L1149.04 205.314L1150.19 211.191L1156.34 215.037L1149.35 215.406L1145.84 221.528Z" fill="white"/>
<path d="M1083.9 255.211L1083.32 248.423L1076.54 245.812L1084.15 244.207L1087.1 238.997L1088.24 244.873L1094.4 248.72L1087.41 249.089L1083.9 255.211Z" fill="white"/>
<path d="M541.532 94.2628L534.115 93.2626L529.802 98.6826L529.775 91.5862L524.839 87.8149L531.402 88.1124L536.903 83.5241L535.743 89.7888L541.532 94.2628Z" fill="white"/>
<path d="M407.394 89.2687L399.978 88.2685L395.664 93.6884L395.637 86.592L390.701 82.8207L397.265 83.1182L402.765 78.53L401.605 84.7947L407.394 89.2687Z" fill="white"/>
<path d="M454.867 217.766L447.45 216.766L443.137 222.186L443.11 215.09L438.174 211.318L444.737 211.616L450.238 207.028L449.077 213.292L454.867 217.766Z" fill="white"/>
<path d="M377.006 37.5983L369.589 36.5981L365.276 42.018L365.249 34.9216L360.313 31.1503L366.876 31.4478L372.377 26.8596L371.217 33.1243L377.006 37.5983Z" fill="white"/>
<path d="M509.009 186.353L501.592 185.353L497.279 190.773L497.252 183.677L492.316 179.905L498.879 180.203L504.379 175.614L503.219 181.879L509.009 186.353Z" fill="white"/>
<path d="M436.084 125.136L428.667 124.136L424.354 129.556L424.327 122.46L419.391 118.688L425.954 118.986L431.455 114.398L430.294 120.662L436.084 125.136Z" fill="white"/>
<path d="M481.18 70.9508L473.763 69.9506L469.45 75.3705L469.423 68.2742L464.487 64.5029L471.05 64.8004L476.551 60.2121L475.39 66.4768L481.18 70.9508Z" fill="white"/>
<path d="M503.537 133.29L496.12 132.29L491.807 137.709L491.78 130.613L486.844 126.842L493.407 127.139L498.908 122.551L497.747 128.816L503.537 133.29Z" fill="white"/>
<path d="M625.851 22.8086L627.74 29.3977L634.921 30.8803L627.74 33.6807L625.851 39.2814L623.583 33.6807L616.78 30.8803L623.583 29.3977L625.851 22.8086Z" fill="white"/>
<path d="M673.296 136.851L675.186 143.44L682.366 144.923L675.186 147.723L673.296 153.324L671.028 147.723L664.226 144.923L671.028 143.44L673.296 136.851Z" fill="white"/>
<path d="M784.93 46.8838L786.819 53.4729L794 54.9555L786.819 57.7559L784.93 63.3566L782.662 57.7559L775.859 54.9555L782.662 53.4729L784.93 46.8838Z" fill="white"/>
<path d="M632.828 182.468L634.717 189.057L641.898 190.54L634.717 193.34L632.828 198.941L630.56 193.34L623.757 190.54L630.56 189.057L632.828 182.468Z" fill="white"/>
<path d="M731.903 13.938L733.792 20.5271L740.973 22.0097L733.792 24.8101L731.903 30.4108L729.635 24.8101L722.833 22.0097L729.635 20.5271L731.903 13.938Z" fill="white"/>
<path d="M698.413 98.8369L700.303 105.426L707.483 106.909L700.303 109.709L698.413 115.31L696.145 109.709L689.343 106.909L696.145 105.426L698.413 98.8369Z" fill="white"/>
<path d="M625.851 82.3643L627.74 88.9534L634.921 90.4359L627.74 93.2363L625.851 98.8371L623.583 93.2363L616.78 90.4359L623.583 88.9534L625.851 82.3643Z" fill="white"/>
<path d="M680.272 39.2803L682.162 45.8694L689.342 47.352L682.162 50.1523L680.272 55.7531L678.004 50.1523L671.202 47.352L678.004 45.8694L680.272 39.2803Z" fill="white"/>
<path d="M290.038 75.4599L286.383 81.4051L290.439 86.9863L283.12 84.4979L277.489 87.3553L280.118 81.8864L277.339 75.5909L283.381 78.7936L290.038 75.4599Z" fill="white"/>
<path d="M237.421 187.616L233.766 193.561L237.822 199.143L230.503 196.654L224.872 199.512L227.501 194.043L224.722 187.747L230.764 190.95L237.421 187.616Z" fill="white"/>
<path d="M386.572 192.775L382.917 198.72L386.973 204.301L379.654 201.813L374.023 204.67L376.652 199.201L373.873 192.906L379.915 196.109L386.572 192.775Z" fill="white"/>
<path d="M173.447 195.136L169.792 201.081L173.848 206.663L166.529 204.174L160.898 207.032L163.527 201.563L160.748 195.267L166.79 198.47L173.447 195.136Z" fill="white"/>
<path d="M373.379 135.674L369.724 141.619L373.78 147.201L366.462 144.712L360.83 147.57L363.46 142.101L360.681 135.805L366.722 139.008L373.379 135.674Z" fill="white"/>
<path d="M284.519 175.943L280.864 181.888L284.919 187.47L277.601 184.981L271.97 187.839L274.599 182.37L271.82 176.074L277.862 179.277L284.519 175.943Z" fill="white"/>
<path d="M244.669 118.467L241.014 124.412L245.07 129.993L237.752 127.505L232.12 130.362L234.75 124.893L231.971 118.598L238.012 121.8L244.669 118.467Z" fill="white"/>
<path d="M316.788 121.542L313.133 127.487L317.188 133.068L309.87 130.58L304.239 133.437L306.868 127.968L304.089 121.673L310.131 124.876L316.788 121.542Z" fill="white"/>
<ellipse cx="823.303" cy="140.653" rx="110.239" ry="100.104" fill="#D1D0FF"/>
<path d="M758.242 221.169C734.418 205.781 718.301 182.428 713.437 156.249C708.573 130.069 715.361 103.208 732.308 81.5733C749.254 59.9388 774.971 45.3034 803.801 40.8869C832.631 36.4703 862.212 42.6344 886.037 58.023L822.14 139.596L758.242 221.169Z" fill="#0B004F"/>
<path d="M875.632 51.954C878.948 54.129 883.135 55.8051 886.097 58.2897C898.314 68.5368 905.864 82.393 905.447 101.418C904.928 125.057 894.678 150.856 876.952 173.141C859.226 195.425 835.476 212.37 810.926 220.247C792.781 226.069 772.719 226.751 757.718 221.117C750.043 216.682 748.648 214.782 745.159 211.614L812.882 131.117L875.632 51.954Z" fill="#0B004F"/>
</svg>
