<svg viewBox="0 0 852 852" fill="none" xmlns="http://www.w3.org/2000/svg">
    <mask id="mask" style="mask-type:alpha" maskUnits="userSpaceOnUse" x="0" y="0" width="852" height="852">
        <circle cx="426" cy="426" r="426" fill="#C4C4C4"/>
    </mask>
    <rect x="-291" y="-14" width="1221" height="886.912" fill="#0C014F"/>
    <path id="MT.2" d="M-291 324.43L-150.062 222.634L73.2068 314.533L274.149 164.667L502.999 337.155L703.941 235.358L823.947 324.43L930 297.567V872.998H-291V324.43Z" fill="#030082"/>
    <path id="MT.1" d="M-291 446.116L-150.062 366.901L73.2068 438.414L274.149 321.792L502.999 456.018L703.941 376.803L823.947 446.116L930 425.212V872.998H-291V446.116Z" fill="#161471"/>
    <g id="Lake">
        <rect x="-291" y="660.12" width="1221" height="139.386" fill="#A0C6FF"/>
        <rect x="-224.02" y="675.326" width="269.318" height="11.4043" rx="5.70214" fill="#8AABFF"/>
        <rect x="318.802" y="670.257" width="142.334" height="11.4043" rx="5.70214" fill="#8AABFF"/>
        <rect x="292.289" y="718.408" width="269.318" height="11.4043" rx="5.70214" fill="#8AABFF"/>
        <rect x="561.607" y="690.531" width="269.318" height="11.4043" rx="5.70214" fill="#8AABFF"/>
        <rect x="99.7207" y="695.6" width="153.497" height="11.4043" rx="5.70214" fill="#8AABFF"/>
    </g>
    <path id="Ground" d="M-291 873H930V723.477C930 723.477 803.452 753.889 717.895 753.889C482.749 753.889 342.525 761.492 108.79 723.477C-124.944 685.463 -291 723.477 -291 723.477V873Z" fill="#0C014F"/>
    <g id="Trees">
        <path d="M296.756 453.604H378.481L397.551 762.822H276.324L296.756 453.604Z" fill="#0C014F"/>
        <path d="M333.773 511.919C335.311 511.039 337.2 511.039 338.738 511.919L540.511 627.32C544.961 629.865 543.155 636.66 538.029 636.66H134.482C129.356 636.66 127.55 629.865 131.999 627.32L333.773 511.919Z" fill="#1B18A6"/>
        <path d="M335.261 444.967C336.733 444.18 338.501 444.18 339.974 444.967L504.027 532.629C508.616 535.081 506.873 542.039 501.67 542.039H173.565C168.361 542.039 166.619 535.081 171.208 532.629L335.261 444.967Z" fill="#1F1CB9"/>
        <path d="M333.641 376.048C335.245 375.063 337.267 375.063 338.872 376.048L466.259 454.236C470.558 456.875 468.688 463.498 463.644 463.498H208.869C203.824 463.498 201.954 456.875 206.253 454.236L333.641 376.048Z" fill="#2925CC"/>
        <path d="M334.653 314.782C336.416 313.483 338.819 313.483 340.582 314.782L436.24 385.206C440.128 388.068 438.103 394.233 433.276 394.233H241.959C237.132 394.233 235.107 388.068 238.995 385.206L334.653 314.782Z" fill="#140FE6"/>
        <path d="M332.609 262.066C334.584 259.96 337.928 259.96 339.903 262.066L397.957 323.969C400.951 327.162 398.687 332.39 394.309 332.39H278.203C273.825 332.39 271.561 327.162 274.556 323.969L332.609 262.066Z" fill="#2D29EE"/>
        <path d="M-65.5632 495.655H16.1626L35.2319 804.873H-85.9946L-65.5632 495.655Z" fill="#0C014F"/>
        <path d="M-28.5458 553.971C-27.0078 553.092 -25.1191 553.092 -23.5811 553.971L178.192 669.373C182.642 671.918 180.836 678.713 175.71 678.713H-227.837C-232.963 678.713 -234.769 671.918 -230.319 669.373L-28.5458 553.971Z" fill="#1B18A6"/>
        <path d="M-27.0575 487.02C-25.5851 486.233 -23.8171 486.233 -22.3446 487.02L141.708 574.682C146.297 577.134 144.555 584.092 139.352 584.092H-188.754C-193.957 584.092 -195.699 577.134 -191.11 574.682L-27.0575 487.02Z" fill="#1F1CB9"/>
        <path d="M-28.6783 418.101C-27.0737 417.116 -25.0519 417.116 -23.4473 418.101L103.94 496.289C108.24 498.928 106.369 505.55 101.325 505.55H-153.45C-158.495 505.55 -160.365 498.928 -156.066 496.289L-28.6783 418.101Z" fill="#2925CC"/>
        <path d="M-27.6656 356.834C-25.9025 355.536 -23.5 355.536 -21.7369 356.834L73.9213 427.259C77.809 430.121 75.7846 436.285 70.957 436.285H-120.36C-125.187 436.285 -127.212 430.121 -123.324 427.259L-27.6656 356.834Z" fill="#140FE6"/>
        <path d="M-29.7097 304.118C-27.7345 302.012 -24.3908 302.012 -22.4155 304.118L35.6377 366.022C38.6322 369.215 36.3682 374.442 31.9906 374.442H-84.1158C-88.4934 374.442 -90.7575 369.215 -87.763 366.022L-29.7097 304.118Z" fill="#2D29EE"/>
        <path d="M663.534 1.96674L663.209 8.76923L669.593 12.1017L661.823 12.8632L658.205 17.7129L657.849 11.7543L652.253 7.26297L659.235 7.66035L663.534 1.96674Z" fill="white"/>
        <path d="M671.995 123.633L671.67 130.436L678.054 133.768L670.284 134.53L666.666 139.379L666.31 133.421L660.714 128.929L667.696 129.327L671.995 123.633Z" fill="white"/>
        <path d="M807.807 67.4125L807.482 74.215L813.866 77.5475L806.096 78.309L802.478 83.1587L802.122 77.2001L796.526 72.7088L803.508 73.1062L807.807 67.4125Z" fill="white"/>
        <path d="M618.556 156.443L618.231 163.246L624.615 166.578L616.846 167.34L613.228 172.189L612.872 166.231L607.275 161.74L614.257 162.137L618.556 156.443Z" fill="white"/>
        <path d="M767.777 21.7768L767.452 28.5793L773.836 31.9118L766.066 32.6733L762.448 37.5229L762.093 31.5644L756.496 27.073L763.478 27.4704L767.777 21.7768Z" fill="white"/>
        <path d="M708.301 93.996L707.975 100.799L714.36 104.131L706.59 104.893L702.972 109.742L702.616 103.784L697.019 99.2923L704.002 99.6896L708.301 93.996Z" fill="white"/>
        <path d="M644.269 58.895L643.944 65.6975L650.328 69.0299L642.558 69.7914L638.94 74.6411L638.584 68.6826L632.988 64.1912L639.97 64.5886L644.269 58.895Z" fill="white"/>
        <path d="M710.226 32.2285L709.901 39.0309L716.285 42.3634L708.515 43.1249L704.897 47.9746L704.541 42.0161L698.945 37.5247L705.927 37.9221L710.226 32.2285Z" fill="white"/>
        <path d="M843.265 266.149L842.686 259.36L835.906 256.75L843.519 255.144L846.467 249.934L847.611 255.811L853.762 259.658L846.778 260.026L843.265 266.149Z" fill="white"/>
        <path d="M818.735 146.292L818.156 139.504L811.377 136.893L818.989 135.288L821.938 130.078L823.081 135.954L829.232 139.801L822.248 140.17L818.735 146.292Z" fill="white"/>
        <path d="M691.364 216.95L690.785 210.162L684.005 207.551L691.618 205.946L694.566 200.736L695.71 206.612L701.861 210.459L694.877 210.828L691.364 216.95Z" fill="white"/>
        <path d="M737.153 257.88L736.574 251.091L729.795 248.481L737.407 246.875L740.356 241.665L741.499 247.542L747.65 251.389L740.666 251.757L737.153 257.88Z" fill="white"/>
        <path d="M786.621 179.683L786.042 172.894L779.263 170.284L786.875 168.679L789.824 163.469L790.967 169.345L797.118 173.192L790.134 173.561L786.621 179.683Z" fill="white"/>
        <path d="M854.842 207.528L854.263 200.74L847.483 198.13L855.095 196.524L858.044 191.314L859.187 197.191L865.339 201.037L858.355 201.406L854.842 207.528Z" fill="white"/>
        <path d="M792.899 241.211L792.32 234.423L785.541 231.812L793.153 230.207L796.102 224.997L797.245 230.873L803.396 234.72L796.412 235.089L792.899 241.211Z" fill="white"/>
        <path d="M250.533 80.2628L243.116 79.2626L238.803 84.6826L238.776 77.5862L233.84 73.8149L240.403 74.1124L245.903 69.5241L244.743 75.7888L250.533 80.2628Z" fill="white"/>
        <path d="M116.395 75.2687L108.978 74.2685L104.665 79.6884L104.638 72.592L99.7018 68.8207L106.265 69.1182L111.766 64.53L110.605 70.7947L116.395 75.2687Z" fill="white"/>
        <path d="M163.868 203.766L156.451 202.766L152.138 208.186L152.11 201.09L147.174 197.318L153.738 197.616L159.238 193.028L158.078 199.292L163.868 203.766Z" fill="white"/>
        <path d="M86.0068 23.5983L78.5899 22.5981L74.2768 28.018L74.2497 20.9216L69.3137 17.1503L75.8769 17.4478L81.3775 12.8596L80.2171 19.1243L86.0068 23.5983Z" fill="white"/>
        <path d="M218.009 172.353L210.592 171.353L206.279 176.773L206.252 169.677L201.316 165.905L207.879 166.203L213.38 161.614L212.22 167.879L218.009 172.353Z" fill="white"/>
        <path d="M145.084 111.136L137.667 110.136L133.354 115.556L133.327 108.46L128.391 104.688L134.955 104.986L140.455 100.398L139.295 106.662L145.084 111.136Z" fill="white"/>
        <path d="M190.181 56.9508L182.764 55.9506L178.451 61.3705L178.423 54.2742L173.487 50.5029L180.051 50.8004L185.551 46.2121L184.391 52.4768L190.181 56.9508Z" fill="white"/>
        <path d="M212.538 119.29L205.121 118.29L200.808 123.709L200.78 116.613L195.844 112.842L202.408 113.139L207.908 108.551L206.748 114.816L212.538 119.29Z" fill="white"/>
        <path d="M334.85 8.80859L336.74 15.3977L343.92 16.8803L336.74 19.6807L334.85 25.2814L332.582 19.6807L325.78 16.8803L332.582 15.3977L334.85 8.80859Z" fill="white"/>
        <path d="M382.295 122.851L384.185 129.44L391.366 130.923L384.185 133.723L382.295 139.324L380.028 133.723L373.225 130.923L380.028 129.44L382.295 122.851Z" fill="white"/>
        <path d="M493.929 32.8838L495.819 39.4729L502.999 40.9555L495.819 43.7559L493.929 49.3566L491.662 43.7559L484.859 40.9555L491.662 39.4729L493.929 32.8838Z" fill="white"/>
        <path d="M341.827 168.468L343.717 175.057L350.897 176.54L343.717 179.34L341.827 184.941L339.56 179.34L332.757 176.54L339.56 175.057L341.827 168.468Z" fill="white"/>
        <path d="M440.902 -0.0620119L442.792 6.52712L449.973 8.00968L442.792 10.8101L440.902 16.4108L438.635 10.8101L431.832 8.00968L438.635 6.52712L440.902 -0.0620119Z" fill="white"/>
        <path d="M407.413 84.8369L409.302 91.426L416.483 92.9086L409.302 95.709L407.413 101.31L405.145 95.709L398.342 92.9086L405.145 91.426L407.413 84.8369Z" fill="white"/>
        <path d="M334.85 68.3643L336.74 74.9534L343.92 76.4359L336.74 79.2363L334.85 84.8371L332.582 79.2363L325.78 76.4359L332.582 74.9534L334.85 68.3643Z" fill="white"/>
        <path d="M389.271 25.2803L391.161 31.8694L398.342 33.352L391.161 36.1523L389.271 41.7531L387.004 36.1523L380.201 33.352L387.004 31.8694L389.271 25.2803Z" fill="white"/>
        <path d="M-0.961869 61.4599L-4.61693 67.4051L-0.561042 72.9863L-7.87967 70.4979L-13.5109 73.3553L-10.8817 67.8864L-13.6607 61.5909L-7.61894 64.7936L-0.961869 61.4599Z" fill="white"/>
        <path d="M95.5718 178.775L91.9168 184.72L95.9726 190.301L88.654 187.813L83.0228 190.67L85.652 185.201L82.8729 178.906L88.9147 182.109L95.5718 178.775Z" fill="white"/>
        <path d="M82.3794 121.674L78.7244 127.619L82.7803 133.201L75.4616 130.712L69.8304 133.57L72.4596 128.101L69.6806 121.805L75.7224 125.008L82.3794 121.674Z" fill="white"/>
        <path d="M-6.4814 161.943L-10.1365 167.888L-6.08057 173.47L-13.3992 170.981L-19.0304 173.839L-16.4012 168.37L-19.1803 162.074L-13.1385 165.277L-6.4814 161.943Z" fill="white"/>
        <path d="M25.7876 107.542L22.1326 113.487L26.1885 119.068L18.8698 116.58L13.2386 119.437L15.8678 113.968L13.0888 107.673L19.1306 110.876L25.7876 107.542Z" fill="white"/>
    </g>
    <g id="Moon">
        <ellipse id="Ellipse 2" cx="532.303" cy="126.653" rx="110.239" ry="100.104" fill="#D1D0FF"/>
        <path id="Ellipse 3" d="M467.242 207.169C443.418 191.781 427.301 168.428 422.437 142.249C417.573 116.069 424.361 89.2079 441.308 67.5733C458.254 45.9388 483.971 31.3034 512.801 26.8869C541.631 22.4703 571.212 28.6344 595.037 44.023L531.14 125.596L467.242 207.169Z" fill="#0B004F"/>
        <path id="Ellipse 4" d="M584.632 37.954C587.948 40.129 592.135 41.8051 595.097 44.2897C607.314 54.5368 614.864 68.393 614.447 87.4184C613.928 111.057 603.678 136.856 585.952 159.141C568.226 181.425 544.476 198.37 519.926 206.247C501.781 212.069 481.719 212.751 466.718 207.117C459.043 202.682 457.648 200.782 454.159 197.614L521.882 117.117L584.632 37.954Z" fill="#0B004F"/>
    </g>
</svg>
