<svg id="visual" viewBox="0 0 960 540" width="960" height="540" xmlns="http://www.w3.org/2000/svg" xmlns:xlink="http://www.w3.org/1999/xlink" version="1.1"><path d="M0 100L22.8 104.8C45.7 109.7 91.3 119.3 137 124.5C182.7 129.7 228.3 130.3 274 128.5C319.7 126.7 365.3 122.3 411.2 113.3C457 104.3 503 90.7 548.8 87.3C594.7 84 640.3 91 686 101C731.7 111 777.3 124 823 119.5C868.7 115 914.3 93 937.2 82L960 71L960 0L937.2 0C914.3 0 868.7 0 823 0C777.3 0 731.7 0 686 0C640.3 0 594.7 0 548.8 0C503 0 457 0 411.2 0C365.3 0 319.7 0 274 0C228.3 0 182.7 0 137 0C91.3 0 45.7 0 22.8 0L0 0Z" fill="#45386d"></path><path d="M0 66L22.8 72C45.7 78 91.3 90 137 87.8C182.7 85.7 228.3 69.3 274 62.8C319.7 56.3 365.3 59.7 411.2 59.7C457 59.7 503 56.3 548.8 61.2C594.7 66 640.3 79 686 84.2C731.7 89.3 777.3 86.7 823 86C868.7 85.3 914.3 86.7 937.2 87.3L960 88L960 0L937.2 0C914.3 0 868.7 0 823 0C777.3 0 731.7 0 686 0C640.3 0 594.7 0 548.8 0C503 0 457 0 411.2 0C365.3 0 319.7 0 274 0C228.3 0 182.7 0 137 0C91.3 0 45.7 0 22.8 0L0 0Z" fill="#484880"></path><path d="M0 68L22.8 65.5C45.7 63 91.3 58 137 55.8C182.7 53.7 228.3 54.3 274 52.3C319.7 50.3 365.3 45.7 411.2 46.8C457 48 503 55 548.8 58.5C594.7 62 640.3 62 686 62.8C731.7 63.7 777.3 65.3 823 67.2C868.7 69 914.3 71 937.2 72L960 73L960 0L937.2 0C914.3 0 868.7 0 823 0C777.3 0 731.7 0 686 0C640.3 0 594.7 0 548.8 0C503 0 457 0 411.2 0C365.3 0 319.7 0 274 0C228.3 0 182.7 0 137 0C91.3 0 45.7 0 22.8 0L0 0Z" fill="#4a5892"></path><path d="M0 13L22.8 18.3C45.7 23.7 91.3 34.3 137 35.7C182.7 37 228.3 29 274 27.2C319.7 25.3 365.3 29.7 411.2 29.2C457 28.7 503 23.3 548.8 21.5C594.7 19.7 640.3 21.3 686 23.3C731.7 25.3 777.3 27.7 823 26.3C868.7 25 914.3 20 937.2 17.5L960 15L960 0L937.2 0C914.3 0 868.7 0 823 0C777.3 0 731.7 0 686 0C640.3 0 594.7 0 548.8 0C503 0 457 0 411.2 0C365.3 0 319.7 0 274 0C228.3 0 182.7 0 137 0C91.3 0 45.7 0 22.8 0L0 0Z" fill="#4a69a4"></path></svg>